# Blender v2.77 (sub 0) OBJ File: ''
# www.blender.org
o Plane
v -1.000000 0.041371 0.000000
v 1.000000 0.041371 0.000000
v 0.000000 1.000000 -0.000000
v -1.000000 0.041371 -0.159045
v 1.000000 0.041371 -0.159045
v 0.000000 1.000000 -0.159045
vt 0.0001 0.0001
vt 0.9999 0.0001
vt 0.5000 0.4793
vt 0.0001 0.0001
vt 0.5000 0.4793
vt 0.9999 0.0001
vn 0.0000 0.0000 1.0000
vn 0.0000 -0.0000 -1.0000
vn 0.6920 0.7219 0.0000
vn 0.0000 -1.0000 0.0000
vn -0.6920 0.7219 0.0000
s off
f 1/1/1 2/2/1 3/3/1
f 4/4/2 6/5/2 5/6/2
f 5/6/3 3/3/3 2/2/3
f 4/4/4 2/2/4 1/1/4
f 6/5/5 1/1/5 3/3/5
f 5/6/3 6/5/3 3/3/3
f 4/4/4 5/6/4 2/2/4
f 6/5/5 4/4/5 1/1/5
